# xmcd
#
# Track frame offsets:
#	150
#	15631
#	39480
#	59744
#	78995
#	100927
#	117892
#	138932
#	159448
#	175994
#	192375
#	202409
#	222761
#	246455
#	264679
#	285953
#
# Disc length: 4080 seconds
#
# Revision: 1
# Processed by: cddbd v1.5.2PL0 Copyright (c) Steve Scherf et al.
# Submitted via: EZCDAudioConverter 1.3.4.1
#
DISCID=ed0fee10
DTITLE=V/A - Retro 90s
DYEAR=2005
DGENRE=
TTITLE0=Smash Mouth - Walking On The Sun
TTITLE1=Londonbeat - I've Been Thinking About You
TTITLE2=Gin Blossoms - Follow You Down
TTITLE3=Deep Blue Something - Breakfast At Tiffany's
TTITLE4=4 Non Blondes - What's Up
TTITLE5=OMC - How Bizzare
TTITLE6=Chumbawamba - Tubthumping
TTITLE7=Semisonic - Closing Time
TTITLE8=Sister Hazel - All For You
TTITLE9=Extreme - Hole Hearted
TTITLE10=Del Amitri - Roll To Me
TTITLE11=Billie Myers - Kiss The Rain
TTITLE12=Meat Loaf - I'd Do Anything For Love (But I Won't Do That)
TTITLE13=Ugly Kid Joe - Cat's In The Cradle
TTITLE14=Giant - I'll See You In My Dreams
TTITLE15=Hanson - MMM Bop
EXTD=
EXTT0=
EXTT1=
EXTT2=
EXTT3=
EXTT4=
EXTT5=
EXTT6=
EXTT7=
EXTT8=
EXTT9=
EXTT10=
EXTT11=
EXTT12=
EXTT13=
EXTT14=
EXTT15=
PLAYORDER=
